<svg width="758" height="71" viewBox="0 0 758 71" fill="none" xmlns="http://www.w3.org/2000/svg">
<path d="M0.680001 71V0.247995H12.68V35.576L43.592 0.247995H57.704L31.688 30.488L57.704 71H43.112L23.336 40.088L12.68 52.376V71H0.680001ZM73.4585 71L62.8025 60.344V31.544L73.4585 20.792H96.4985L107.155 31.544V50.168H74.4185V57.272L78.6425 61.496H106.291V71H73.4585ZM74.4185 41.24H95.5385V34.04L91.3145 29.816H78.6425L74.4185 34.04V41.24ZM120.575 71V20.792H132.191V29.72L141.215 20.792H152.543V32.408H141.311L132.191 41.528V71H120.575ZM160.7 15.32V3.32H172.316V15.32H160.7ZM160.7 71V20.792H172.316V71H160.7ZM186.763 71V20.792H198.379V29.72L207.403 20.792H225.355L234.283 29.816L243.307 20.792H261.259L271.915 31.544V71H260.299V34.232L256.267 29.816H246.091L236.01 39.896V71H224.395V34.232L220.363 29.816H210.187L198.379 41.528V71H186.763ZM309.118 71V0.247995H324.574L352.606 49.688V0.247995H364.702V71H351.55L323.518 21.56H321.118V71H309.118ZM389.302 71L378.646 60.344V31.544L389.302 20.792H414.454L425.11 31.544V60.344L414.454 71H389.302ZM394.486 62.072L409.27 61.976L413.494 57.752V34.04L409.27 29.816H394.486L390.262 34.04V57.752L394.486 62.072ZM451.402 71L429.898 20.792H442.666L457.161 59.576H459.466L473.962 20.792H486.73L465.13 71H451.402ZM494.919 71V20.792H506.535V29.72L515.559 20.792H526.887V32.408H515.655L506.535 41.528V71H494.919ZM545.22 71L534.564 60.344V20.792H546.18V57.56L550.212 61.976H559.908L570.084 51.992V20.792H581.7V71H570.084V63.8L562.788 71H545.22ZM594.155 71V60.344L623.147 30.296H596.171V20.792H637.355V31.544L608.363 61.496H638.027V71H594.155ZM659.677 71L649.021 60.344V31.544L659.677 20.792H684.829L695.485 31.544V60.344L684.829 71H659.677ZM664.861 62.072L679.645 61.976L683.869 57.752V34.04L679.645 29.816H664.861L660.637 34.04V57.752L664.861 62.072ZM721.777 71L700.273 20.792H713.041L727.536 59.576H729.841L744.337 20.792H757.105L735.505 71H721.777Z" fill="white"/>
</svg>
