<svg width="1766" height="74" viewBox="0 0 1766 74" fill="none" xmlns="http://www.w3.org/2000/svg">
<path d="M0 70.0887V2.88873H28.8V32.0727L67.968 2.88873H107.52L71.52 29.6727L125.76 70.0887H86.208L51.744 44.4567L28.8 61.5447V70.0887H0ZM157.425 50.8887H241.905V70.0887H128.625V2.88873H237.105V22.0887H157.425V26.8887H223.665V46.0887H157.425V50.8887ZM281.269 46.0887V70.0887H252.469V2.88873H352.693C358.005 2.88873 362.421 3.97673 365.941 6.15273C369.525 8.26473 372.213 10.9207 374.005 14.1207C375.797 17.3207 376.693 20.7767 376.693 24.4887C376.693 28.2007 375.797 31.6567 374.005 34.8567C372.213 38.0567 369.525 40.7447 365.941 42.9207C362.421 45.0327 358.005 46.0887 352.693 46.0887H351.445L383.605 70.0887H344.053L311.893 46.0887H281.269ZM348.757 26.8887C349.525 26.8887 350.101 26.6327 350.485 26.1207C350.869 25.6087 351.061 25.0647 351.061 24.4887C351.061 23.9127 350.869 23.3687 350.485 22.8567C350.101 22.3447 349.525 22.0887 348.757 22.0887H281.269V26.8887H348.757ZM388.406 2.88873H417.206V70.0887H388.406V2.88873ZM509.786 30.8247L529.274 2.98472L557.882 2.88873L596.666 70.0887H563.45L540.41 30.1527L509.786 73.8327L479.162 30.1527L456.122 70.0887H422.906L461.69 2.88873L490.298 2.98472L509.786 30.8247ZM787.78 2.88873C797.636 2.88873 805.924 3.88073 812.644 5.86473C819.428 7.84873 824.9 10.9207 829.06 15.0807C833.284 19.1767 836.324 24.4247 838.18 30.8247C840.036 37.2247 840.964 44.8727 840.964 53.7687V70.0887H812.164V53.7687C812.164 47.6247 811.46 42.5047 810.052 38.4087C808.644 34.3127 806.468 31.0807 803.524 28.7127C800.58 26.2807 796.836 24.5847 792.292 23.6247C787.812 22.6007 782.468 22.0887 776.26 22.0887H740.548V70.0887H711.748V2.88873H787.78ZM911.84 72.9687C907.168 73.0327 902.304 72.7447 897.248 72.1047C892.192 71.5287 887.232 70.6007 882.368 69.3207C877.568 67.9767 872.992 66.3127 868.64 64.3287C864.352 62.3447 860.576 60.0087 857.312 57.3207C854.048 54.5687 851.456 51.4647 849.536 48.0087C847.68 44.5527 846.752 40.7127 846.752 36.4887C846.752 32.2647 847.68 28.4247 849.536 24.9687C851.392 21.4487 853.952 18.3447 857.216 15.6567C860.48 12.9047 864.256 10.5367 868.544 8.55273C872.896 6.56873 877.472 4.93673 882.272 3.65673C887.136 2.37673 892.096 1.44873 897.152 0.872727C902.208 0.232727 907.104 -0.0552727 911.84 0.00872728C916.576 -0.0552727 921.472 0.232727 926.528 0.872727C931.648 1.44873 936.608 2.37673 941.408 3.65673C946.272 4.93673 950.848 6.56873 955.136 8.55273C959.488 10.5367 963.296 12.9047 966.56 15.6567C969.824 18.3447 972.384 21.4487 974.24 24.9687C976.16 28.4247 977.12 32.2647 977.12 36.4887C977.12 40.7127 976.16 44.5527 974.24 48.0087C972.384 51.4647 969.792 54.5687 966.464 57.3207C963.2 60.0087 959.392 62.3447 955.04 64.3287C950.752 66.3127 946.176 67.9767 941.312 69.3207C936.512 70.6007 931.552 71.5287 926.432 72.1047C921.376 72.7447 916.512 73.0327 911.84 72.9687ZM880.832 36.4887C880.832 39.3687 881.632 41.8967 883.232 44.0727C884.896 46.1847 887.136 47.9447 889.952 49.3527C892.832 50.6967 896.128 51.7207 899.84 52.4247C903.616 53.1287 907.616 53.4807 911.84 53.4807C916.064 53.4807 920.064 53.1287 923.84 52.4247C927.616 51.7207 930.912 50.6967 933.728 49.3527C936.608 47.9447 938.88 46.1847 940.544 44.0727C942.208 41.8967 943.04 39.3687 943.04 36.4887C943.04 33.6087 942.208 31.1127 940.544 29.0007C938.88 26.8247 936.608 25.0647 933.728 23.7207C930.912 22.3127 927.616 21.2567 923.84 20.5527C920.064 19.8487 916.064 19.4967 911.84 19.4967C907.616 19.4967 903.616 19.8487 899.84 20.5527C896.128 21.2567 892.832 22.3127 889.952 23.7207C887.136 25.0647 884.896 26.8247 883.232 29.0007C881.632 31.1127 880.832 33.6087 880.832 36.4887ZM1077.9 2.88873H1111.12L1072.43 70.0887H1010.22L971.531 2.88873H1004.75L1032.4 50.8887H1050.25L1077.9 2.88873ZM1145.64 46.0887V70.0887H1116.84V2.88873H1217.07C1222.38 2.88873 1226.8 3.97673 1230.32 6.15273C1233.9 8.26473 1236.59 10.9207 1238.38 14.1207C1240.17 17.3207 1241.07 20.7767 1241.07 24.4887C1241.07 28.2007 1240.17 31.6567 1238.38 34.8567C1236.59 38.0567 1233.9 40.7447 1230.32 42.9207C1226.8 45.0327 1222.38 46.0887 1217.07 46.0887H1215.82L1247.98 70.0887H1208.43L1176.27 46.0887H1145.64ZM1213.13 26.8887C1213.9 26.8887 1214.48 26.6327 1214.86 26.1207C1215.24 25.6087 1215.44 25.0647 1215.44 24.4887C1215.44 23.9127 1215.24 23.3687 1214.86 22.8567C1214.48 22.3447 1213.9 22.0887 1213.13 22.0887H1145.64V26.8887H1213.13ZM1249.03 2.88873H1277.83V32.6487C1277.83 36.2327 1278.76 39.2727 1280.62 41.7687C1282.54 44.2007 1285.03 46.1847 1288.11 47.7207C1291.18 49.1927 1294.63 50.2487 1298.47 50.8887C1302.38 51.5287 1306.31 51.8487 1310.28 51.8487C1314.25 51.8487 1318.15 51.5287 1321.99 50.8887C1325.9 50.2487 1329.39 49.1927 1332.46 47.7207C1335.53 46.1847 1337.99 44.2007 1339.85 41.7687C1341.77 39.2727 1342.73 36.2327 1342.73 32.6487V2.88873H1371.53V37.4487C1371.53 41.6727 1370.67 45.4807 1368.94 48.8727C1367.27 52.2647 1364.94 55.3047 1361.93 57.9927C1358.99 60.6167 1355.5 62.8887 1351.47 64.8087C1347.5 66.7287 1343.24 68.2967 1338.7 69.5127C1334.15 70.7287 1329.45 71.6247 1324.59 72.2007C1319.72 72.7767 1314.95 73.0327 1310.28 72.9687C1305.61 73.0327 1300.84 72.7767 1295.98 72.2007C1291.11 71.6247 1286.41 70.7287 1281.87 69.5127C1277.32 68.2967 1273.03 66.7287 1269 64.8087C1265.03 62.8887 1261.55 60.6167 1258.54 57.9927C1255.59 55.3047 1253.26 52.2647 1251.53 48.8727C1249.87 45.4807 1249.03 41.6727 1249.03 37.4487V2.88873ZM1437.95 22.0887H1382.36V2.88873H1503.32L1438.91 50.8887H1497.37V70.0887H1373.53L1437.95 22.0887ZM1566.59 72.9687C1561.92 73.0327 1557.05 72.7447 1552 72.1047C1546.94 71.5287 1541.98 70.6007 1537.12 69.3207C1532.32 67.9767 1527.74 66.3127 1523.39 64.3287C1519.1 62.3447 1515.33 60.0087 1512.06 57.3207C1508.8 54.5687 1506.21 51.4647 1504.29 48.0087C1502.43 44.5527 1501.5 40.7127 1501.5 36.4887C1501.5 32.2647 1502.43 28.4247 1504.29 24.9687C1506.14 21.4487 1508.7 18.3447 1511.97 15.6567C1515.23 12.9047 1519.01 10.5367 1523.29 8.55273C1527.65 6.56873 1532.22 4.93673 1537.02 3.65673C1541.89 2.37673 1546.85 1.44873 1551.9 0.872727C1556.96 0.232727 1561.85 -0.0552727 1566.59 0.00872728C1571.33 -0.0552727 1576.22 0.232727 1581.28 0.872727C1586.4 1.44873 1591.36 2.37673 1596.16 3.65673C1601.02 4.93673 1605.6 6.56873 1609.89 8.55273C1614.24 10.5367 1618.05 12.9047 1621.31 15.6567C1624.57 18.3447 1627.13 21.4487 1628.99 24.9687C1630.91 28.4247 1631.87 32.2647 1631.87 36.4887C1631.87 40.7127 1630.91 44.5527 1628.99 48.0087C1627.13 51.4647 1624.54 54.5687 1621.21 57.3207C1617.95 60.0087 1614.14 62.3447 1609.79 64.3287C1605.5 66.3127 1600.93 67.9767 1596.06 69.3207C1591.26 70.6007 1586.3 71.5287 1581.18 72.1047C1576.13 72.7447 1571.26 73.0327 1566.59 72.9687ZM1535.58 36.4887C1535.58 39.3687 1536.38 41.8967 1537.98 44.0727C1539.65 46.1847 1541.89 47.9447 1544.7 49.3527C1547.58 50.6967 1550.88 51.7207 1554.59 52.4247C1558.37 53.1287 1562.37 53.4807 1566.59 53.4807C1570.81 53.4807 1574.81 53.1287 1578.59 52.4247C1582.37 51.7207 1585.66 50.6967 1588.48 49.3527C1591.36 47.9447 1593.63 46.1847 1595.29 44.0727C1596.96 41.8967 1597.79 39.3687 1597.79 36.4887C1597.79 33.6087 1596.96 31.1127 1595.29 29.0007C1593.63 26.8247 1591.36 25.0647 1588.48 23.7207C1585.66 22.3127 1582.37 21.2567 1578.59 20.5527C1574.81 19.8487 1570.81 19.4967 1566.59 19.4967C1562.37 19.4967 1558.37 19.8487 1554.59 20.5527C1550.88 21.2567 1547.58 22.3127 1544.7 23.7207C1541.89 25.0647 1539.65 26.8247 1537.98 29.0007C1536.38 31.1127 1535.58 33.6087 1535.58 36.4887ZM1732.65 2.88873H1765.87L1727.18 70.0887H1664.97L1626.28 2.88873H1659.5L1687.15 50.8887H1705L1732.65 2.88873Z" fill="white"/>
</svg>
